<!DOCTYPE svg PUBLIC "-//W3C//DTD SVG 1.1//EN" "http://www.w3.org/Graphics/SVG/1.1/DTD/svg11.dtd" [
	<!ENTITY ns_flows "http://ns.adobe.com/Flows/1.0/">
]><svg xmlns="http://www.w3.org/2000/svg" width="280" height="66" viewBox="0 0 280 66" overflow="visible"><path fill="#FFF" d="M98.72 26.77H103v15.812h9.48v3.586H98.72V26.77zm18.116 13.313c.11 2.445 1.307 3.56 3.46 3.56 1.552 0 2.805-.952 3.05-1.82h3.405c-1.08 3.313-3.4 4.726-6.59 4.726-4.44 0-7.19-3.05-7.19-7.39 0-4.21 2.92-7.42 7.19-7.42 4.8 0 7.11 4.02 6.84 8.34h-10.16zm6.292-2.445c-.354-1.956-1.2-2.988-3.078-2.988-2.452 0-3.16 1.9-3.214 2.988h6.292zm8.336 3.966c.027 1.686 1.444 2.364 2.97 2.364 1.116 0 2.533-.435 2.533-1.793 0-1.168-1.607-1.576-4.386-2.173-2.23-.49-4.46-1.278-4.46-3.75 0-3.586 3.11-4.51 6.13-4.51 3.08 0 5.91 1.033 6.21 4.482h-3.68c-.11-1.494-1.25-1.9-2.64-1.9-.87 0-2.15.162-2.15 1.303 0 1.386 2.18 1.576 4.39 2.092 2.26.51 4.47 1.33 4.47 3.93 0 3.69-3.21 4.89-6.43 4.89-3.27 0-6.45-1.22-6.62-4.95h3.68zm13.81 0c.028 1.686 1.445 2.364 2.97 2.364 1.117 0 2.534-.435 2.534-1.793 0-1.168-1.607-1.576-4.386-2.173-2.234-.49-4.468-1.278-4.468-3.75 0-3.586 3.105-4.51 6.13-4.51 3.077 0 5.91 1.033 6.21 4.482h-3.678c-.11-1.494-1.253-1.9-2.642-1.9-.872 0-2.152.162-2.152 1.303 0 1.386 2.18 1.576 4.386 2.092 2.26.51 4.467 1.33 4.467 3.93 0 3.69-3.214 4.89-6.43 4.89-3.268 0-6.456-1.22-6.62-4.95h3.68zm17.653-9.86c4.44 0 7.3 2.933 7.3 7.415 0 4.45-2.86 7.38-7.3 7.38-4.413 0-7.273-2.94-7.273-7.39 0-4.48 2.86-7.42 7.273-7.42zm0 11.9c2.642 0 3.432-2.257 3.432-4.484 0-2.255-.79-4.51-3.44-4.51-2.62 0-3.41 2.255-3.41 4.51 0 2.227.79 4.482 3.4 4.482zm8.99-11.52h3.678v1.954h.082c.98-1.574 2.67-2.335 4.304-2.335 4.12 0 5.15 2.31 5.15 5.786v8.63h-3.87v-7.93c0-2.31-.68-3.45-2.47-3.45-2.1 0-2.99 1.17-2.99 4.02v7.36h-3.87V32.12zm18.333 9.48c.027 1.686 1.444 2.364 2.97 2.364 1.116 0 2.532-.435 2.532-1.793 0-1.168-1.607-1.576-4.385-2.173-2.234-.49-4.468-1.278-4.468-3.75 0-3.586 3.1-4.51 6.12-4.51 3.08 0 5.91 1.033 6.21 4.482h-3.68c-.11-1.494-1.26-1.9-2.65-1.9-.87 0-2.15.162-2.15 1.303 0 1.386 2.18 1.576 4.38 2.092 2.26.51 4.47 1.33 4.47 3.93 0 3.69-3.22 4.89-6.43 4.89-3.27 0-6.46-1.22-6.62-4.95h3.68zm12.14-6.9h-2.314v-2.58h2.315v-1.088c0-2.472 1.56-4.265 4.72-4.265.68 0 1.39.09 2.05.11v2.88c-.46-.05-.92-.08-1.41-.08-1.03 0-1.47.44-1.47 1.6v.85h2.67v2.58h-2.67v11.46h-3.87V34.71zm14.006-2.96c4.44 0 7.3 2.933 7.3 7.415 0 4.45-2.86 7.38-7.3 7.38-4.413 0-7.273-2.94-7.273-7.39 0-4.48 2.86-7.42 7.273-7.42zm0 11.9c2.643 0 3.433-2.257 3.433-4.484 0-2.255-.79-4.51-3.44-4.51-2.62 0-3.41 2.255-3.41 4.51 0 2.227.79 4.482 3.4 4.482zm8.75-11.52h3.677v2.606h.054c.708-1.766 2.615-2.987 4.495-2.987.272 0 .6.054.845.135v3.586c-.354-.08-.926-.135-1.39-.135-2.833 0-3.813 2.03-3.813 4.5v6.33h-3.868V32.12zm10.428-5.354h4.276v15.812h9.48v3.586h-13.757V26.77zm19.026 3.18h-3.868v-3.18h3.868v3.18zm-3.87 2.173h3.87v14.045h-3.87V32.123zm7.515 2.58h-2.315v-2.58h2.315v-1.087c0-2.472 1.553-4.265 4.712-4.265.682 0 1.39.09 2.043.11v2.88c-.463-.05-.926-.08-1.416-.08-1.035 0-1.47.44-1.47 1.6v.85h2.668v2.58h-2.67v11.46h-3.867V34.71zm10.572 5.38c.11 2.445 1.308 3.56 3.46 3.56 1.553 0 2.806-.952 3.05-1.82h3.406c-1.09 3.313-3.405 4.726-6.593 4.726-4.44 0-7.19-3.05-7.19-7.39 0-4.21 2.914-7.42 7.19-7.42 4.795 0 7.11 4.02 6.838 8.34h-10.16zm6.293-2.445c-.354-1.956-1.2-2.988-3.078-2.988-2.452 0-3.16 1.9-3.215 2.988h6.293z"/><path fill-rule="evenodd" clip-rule="evenodd" fill="#FFF" d="M77.87 53.346l.02-.028h-.04c.004.006.01.01.013.017l.008.01z"/><path fill="#F0F" d="M49.743 44.32c.035-.063.074-.122.11-.184h-.117l.007.183z"/><path fill="#FFF" d="M71.267 44.965c1.118.332 2.148.793 3.06 1.37.383.242.75.36 1.16.372.323.01.66.045.993.104.73-.99 1.466-1.97 2.2-2.96l-9.803.1c.75.43 1.546.77 2.39 1.02zm-48.657 1.81c.64-.89 1.42-1.63 2.362-2.235-.145-.05-.29-.098-.435-.146l-8.62.087c.024.11.035.19.06.27.287.87.565 1.75.867 2.61.023.07 1.783.17 4.7.3.088-.05.176-.11.267-.15.3-.16.57-.4.8-.72zm-.344-8.95l-.47.468c.25.134.47.335.646.6.7-.01 1.4-.01 2.102-.01h.83c.507 0 1.015 0 1.523-.004h.055c.757 0 1.43.1 2.053.3l.234.06.19.05c.09.02.17.03.25.03.09 0 .2-.02.34-.15l.96-.87c.32-.3.66-.6.99-.9l-9.8.23.08.17zm44.48-.815c.01.262.02.507.057.716.045.238.164.87-.22 1.403-.157.21-.353.36-.556.45-.03.25-.118.48-.26.68 8.113-.11 14.465-.19 16.334-.22l.44-.58.25-.33c.11-.96.19-1.92.2-2.89l-16.1.37c-.04.05-.08.1-.13.14l.01.24zm-17.85.563c.143.517.206 1.027.266 1.52l.028.23.048.396c.03.26.064.51.103.76l3.61-.05c.23-.23.46-.46.7-.72l.14-.15c.1-.11.1-.13.09-.19-.1-.63.1-1.04.29-1.27.18-.21.42-.36.69-.43.03-.28.08-.54.13-.81l-6.22.14c.05.17.11.35.16.53zm-28.87-4.58l.343.74c3.73.093 9.01.223 14.97.364.23-.245.47-.49.71-.734l.06-.06c.15-.156.28-.392.36-.555.13-.254.25-.515.37-.776.07-.147.13-.296.2-.44l-.09-.2-.02-.042h-.01c-.03.007-.06.016-.1.022-.35.08-.71.164-1.07.227-.17.02-.33.04-.48.04-.3 0-.72-.07-1.12-.34-6.22-.11-11.63-.21-15.1-.27l.94 2.02zm27.084-.873c.206.348.374.727.497 1.126.123.4.234.77.352 1.15 2.42.06 4.84.116 7.23.172l-.03-.142c-.13-.743-.27-1.513-.35-2.29-.02-.178-.03-.353-.03-.526l-8.09-.145c.14.22.27.44.4.655zm20.775 2.43c-.02.11-.053.206-.08.31 8.777.198 15.105.332 15.156.308.06-.536-.04-2.536-.15-3.055l-15.02-.27c.26.807.29 1.682.1 2.708zm-36.01-12.846c.048-.187.11-.36.18-.53-8.07-.4-13.886-.687-13.912-.687-.695 1.416-1.293 2.873-1.787 4.4l15.674.045c-.007-.028-.01-.052-.02-.082-.35-1.08-.395-2.14-.135-3.146zm15.47.606c-.087.227-.353.774-.935.962-.15.048-.296.106-.442.164-.194.076-.395.155-.616.224-.083.367-.238.66-.368.905l-.037.07c-.072.137-.092.245-.093.28 0 .02-.005.035-.005.053l36.53.102-.51-1.482c-.38-.02-17.24-.854-33.38-1.652l-.09.24-.06.134zm18.675 6.276c.51.415.87.88 1.093 1.404l15.462.105c-.104-.63-.196-1.216-.344-1.804l-16.86-.24c.04.03.08.07.12.1l.54.45zm-47.54 1.07l14.306.1c-.106-.138-.192-.288-.24-.46-.56-.404-.74-.84-.57-1.412-.12-.102-.212-.213-.293-.327l-14.273-.21.138.298.932 2.012zm24.893-1.646c.01.042.03.082.045.123.04.104.08.208.11.315.043.15.05.175.24.218.687.152 1.282.548 1.817 1.177 3.146.02 6.29.043 9.437.064.24-.748.658-1.42 1.25-1.993l-12.758-.186c-.05.066-.103.136-.153.19 0 0 0 .03.02.093zM27.405 52.526c-.067 0-.134-.002-.2-.003-.515.57-1.084 1.015-1.56 1.35-.314.223-.61.433-.89.656-.14.11-.288.21-.433.32l2.596.03c.15-.79.308-1.58.487-2.36zm9.752-35.71l.115.003c.21 0 .38-.03.537-.08.21-.07.42-.09.6-.1 0-.31.14-.63.41-.91l.11-.13c.19-.22.42-.47.71-.67.29-.21.59-.28.82-.34.04-.02.09-.03.14-.04.14-.04.27-.07.41-.11-10.17-.4-18.55-.71-18.58-.67-.71.89-1.4 1.79-2.04 2.73-.04.06-.07.12-.13.22l16.28.08c.13-.01.26-.03.4-.03h.17zm8.248-1.256l.063.017c.28.074.636.21.896.565l.04.038c.07.067.177.17.275.312l.07.102c.06.087.13.188.2.295 10.18.04 20.37.09 30.55.13.01-.02.02-.05.02-.07-.23-.34-.46-.67-.69-1-.03-.05-18.1-.79-33.4-1.4.19.03.39.08.58.13.34.09.95.26 1.37.86zm28.26-3.48c-.042-.053-.088-.104-.134-.152-.79-.838-1.63-1.626-2.51-2.378-.15-.13-.29-.188-.5-.19-3.43-.036-43.03-.497-43.17-.374-.72.646-1.45 1.284-2.17 1.926-.03.03-.05.072-.09.133l48.6 1.105c0-.042.01-.062 0-.07zm-1.76 48.445l1.99-1.98c.003-.005-1.784-.06-4.686-.142-.18.15-.36.305-.52.46-.61.56-1.2 1.07-1.8 1.55 3.06.084 4.99.13 5.01.112zm-49.27-3.275c.538.595 1.077 1.187 1.61 1.782.017.02 1.516.08 3.96.17l-.187-.166c-.256-.223-.47-.39-.677-.523l-.05-.035c-.55-.354-.77-.706-.76-1.24-2.47-.065-3.97-.105-3.97-.1.03.037.06.078.09.112zm42.34-52.028l.014-.104C59.92 2.4 54.5 1.014 48.75 1c-5-.012-9.78 1.064-14.32 3.158.002.037.006.073.01.11l30.535.954z"/><path fill-rule="evenodd" clip-rule="evenodd" fill="#FFF" d="M94.933 63.446c-.78-.065-1.562-.14-2.344-.19-.79-.05-1.58-.083-2.37-.114-.77-.03-1.54-.048-2.3-.07.1-.113.2-.14.29-.176.35-.14.72-.246 1.04-.433.72-.415.73-.87.07-1.35-.5-.357-1.04-.61-1.65-.72-.21-.036-.42-.092-.6-.198-.92-.556-1.83-1.132-2.74-1.7-.17-.105-.27-.208-.17-.44.11-.27.03-.413-.25-.525-.11-.045-.23-.066-.39-.11v-.442c-.01-.165-.01-.332-.03-.495-.03-.204-.11-.393-.33-.448-.25-.062-.36.127-.46.296-.07.12-.11.25-.17.37-.04.09-.09.17-.16.31l-.14-.24c-.22-.39-.33-.42-.72-.21-.48.25-.8.13-.91-.39-.07-.32-.2-.6-.35-.9-.16-.3-.35-.46-.67-.43-.29.03-.45-.1-.61-.31-.12-.15-.24-.34-.41-.41-.38-.14-.72-.29-.94-.66-.12-.2-.34-.34-.59-.58-.25-.05-.46-.2-.58-.48-.08-.18-.02-.33.17-.32.23.01.46.09.69.16.14.05.25.16.39.21.17.07.26.16.3.36.08.41.35.69.74.78.38.09.78.1 1.17.1.43 0 .74-.24.92-.62.11-.23.2-.47.3-.72.05-.01.11-.04.16-.03.38.1.75.2 1.17.31 2.13-2.7 4.27-5.42 6.39-8.12-.245-.55-.584-.95-1.06-1.26-1.38-.93-2.74-1.9-4.105-2.85-.13-.09-.27-.18-.43-.28l-.99 1.34-.498-.12c-.056.07-.106.12-.15.18-1.51 2.03-3.02 4.05-4.52 6.09-.19.26-.377.34-.68.28-.34-.06-.69-.11-1.04-.12-.61-.02-1.14-.2-1.66-.53-.87-.55-1.814-.96-2.81-1.26-1.77-.52-3.345-1.4-4.72-2.63-.905-.8-1.8-1.62-2.7-2.43-.095-.09-.17-.19-.245-.28.134-.27.343-.3.562-.3.25.01.48.01.6-.29.023-.07.16-.11.253-.15.21-.08.3-.23.3-.45-.004-.19.01-.38.02-.55.08-.03.105-.05.135-.05.61-.08.74-.29.63-.88-.07-.39-.06-.81-.09-1.21-.01-.24.08-.44.267-.6.53-.46.78-1.06.91-1.73.17-.93.17-1.83-.25-2.71-.15-.3-.27-.61-.35-.93-.144-.57-.48-1-.92-1.36-.7-.58-1.38-1.18-2.13-1.7-1.584-1.09-3.22-1.23-4.81-.22-.47.31-.9.67-1.32 1.03-1.07.94-1.47 2.16-1.31 3.55.09.81.23 1.62.37 2.42.07.4.12.79.05 1.21-.17.93-.44 1.85-.44 2.81 0 .19-.125.25-.316.21-.486-.1-.72.08-.64.55.07.42-.07.74-.34 1.03-.36.39-.72.78-1.106 1.14-.915.85-1.755 1.76-2.43 2.81-.955 1.47-1.44 3.12-1.685 4.84-.055.38-.07.76-.11 1.21-.143-.19-.22-.32-.33-.41-.34-.3-.38-.46-.014-.93.06-.07.12-.13.173-.21.182-.25.2-.3-.03-.54-.18-.18-.21-.36-.09-.57.11-.2.122-.39.02-.6-.04-.08-.06-.17-.07-.26-.056-1.19-.11-2.39-.15-3.58-.006-.16.074-.32.09-.49.01-.16.04-.34-.02-.48-.39-.87-.454-1.81-.57-2.74-.07-.54-.12-1.083-.27-1.6-.4-1.44-.84-2.87-1.28-4.3-.09-.31-.23-.62-.4-.91-.35-.594-.73-1.18-1.12-1.755-.39-.57-.88-1.07-1.575-1.23-.55-.12-.848-.41-.99-.92-.04-.154-.12-.31-.16-.47-.087-.333-.057-.654.18-.94.202-.253.39-.533.613-.77.443-.463.645-1 .66-1.636.004-.25.09-.51.206-.73.15-.28.3-.55.34-.87.04-.35.24-.48.59-.58.38-.11.74-.285 1.12-.405.13-.04.25-.22.302-.37.113-.29.272-.565.24-.9-.01-.14.06-.31.15-.41.26-.29.194-.57.04-.868-.03-.05-.067-.1-.08-.15-.18-.65-.338-1.308-.538-1.95-.07-.22-.236-.42-.37-.614-.08-.11-.2-.19-.28-.3-.095-.13-.21-.18-.37-.22-.205-.052-.475-.15-.563-.31-.2-.37-.55-.476-.88-.567-.71-.193-1.44-.25-2.18-.28-.06-.004-.12.015-.17.03-.17.04-.34.07-.51.12-.23.066-.48.1-.67.23-.25.18-.46.43-.67.66-.07.07-.16.2-.14.27.08.275-.12.434-.2.646-.11.253-.26.29-.49.3-.21 0-.43 0-.63.06-.32.1-.65.12-.98.11-.62-.02-1.21.1-1.71.48-.37.28-.72.59-1.06.905-.08.078-.108.21-.166.31-.14.26-.26.54-.44.78-.382.51-.732 1.04-.894 1.66-.225.87-.154 1.745.12 2.59.18.556.17 1.065-.12 1.566-.075.13-.18.24-.27.36-.2.257-.188.45.062.66.07.06.154.097.23.14.285.167.34.346.19.63-.21.4-.21.4.18.65.125.08.27.15.27.34-.01.26.14.37.37.44.21.06.35.2.43.42.23.68.622.92 1.313.81.49-.09.976-.21 1.46-.32.35-.08.46-.04.627.27.12.23.21.47.31.71.1.22.11.43 0 .65-.22.44-.41.91-.64 1.35-.14.27-.31.55-.53.77-1.05 1.09-2.09 2.184-3.18 3.236-.96.93-1.96 1.8-2.95 2.7-.44.41-.952.49-1.52.336-.16-.047-.32-.08-.48-.13-.58-.19-1.18-.26-1.79-.26-1.485.01-2.97-.005-4.46.01-.36.005-.61-.07-.81-.41-.29-.47-.76-.48-1.17-.1-.03.03-.08.04-.14.07-.31-.32-.62-.64-.81-1.08.32-.04.65-.01.89-.134.25-.13.43-.405.66-.63l-4.43-9.54c-.43.09-.82.18-1.24.264l-1.02-2.03-4.24 3.3c.07.17.12.3.18.44.94 2.014 1.87 4.03 2.8 6.05.07.14.11.305.13.463.02.172-.01.353.01.53.08.72.16 1.44.26 2.16.03.203.08.44.21.583.68.77 1.46 1.45 2.526 1.58.894.11 1.81.1 2.714.14.124.005.25 0 .39 0-.14.565-.05.87.327 1.014.45.17.92.245 1.31-.155.14-.15.28-.16.45-.11.14.04.29.08.43.13l5.294 1.78c.09.03.17.09.29.15-.16.09-.26.16-.37.2-1.48.6-2.732 1.48-3.673 2.79-.3.42-.68.78-1.14 1.02-.84.447-1.55 1.05-2.226 1.71-.42.415-.86.81-1.29 1.21-1.71 1.59-3.42 3.17-5.28 4.59-.96.73-2.01 1.3-3.09 1.82-.15.07-.3.164-.47.044-.25-.177-.488-.07-.678.07-.54.41-1.063.84-1.58 1.28-.12.1-.17.28-.27.41-.086.11-.18.244-.3.303-.85.41-1.73.72-2.67.85-.503.07-1 .16-1.214.722-.01.03-.03.06-.05.074-.17.11-.25.25-.227.46.03.25.22.31.4.38.57.2 1.14.39 1.74.6-1.37.16-2.72.23-4.06.43.18.07.36.1.54.102 2.14.06 4.28.13 6.41.17 3.5.063 7.01.15 10.51.163 8.58.03 17.16.03 25.74.04 3.686 0 7.37-.006 11.05.02 3.8.03 7.61.115 11.41.14 3 .02 6.008.02 9.01-.02 4-.054 8.003-.15 12.005-.233 2.274-.046 4.55-.102 6.82-.156.15-.005.3-.02.45-.033l-.006-.1zm-11.48-22.924l3.413 2.353-.052.098-4.16-1.417.8-1.034zm-1.5 1.164c.153.043.297.077.437.123 1.783.58 3.562 1.17 5.35 1.74.36.11.614.29.754.73-.747-.19-1.43-.44-2.12-.66l-2.164-.69-2.128-.68-4.335 5.8-.415-.16c1.548-2.09 3.076-4.14 4.62-6.22zM10.75 29.518c-.02-.03-.038-.062-.058-.094l3.54-2.734.996 2.033c-1.516.306-3.002.52-4.477.795zm5.237-.8c.185-.14.327-.25.523-.4l4.35 9.265-.543.503-4.33-9.367zM11.993 62.72h-1.616c.49-.26 1.028-.296 1.616-.37v.37zm24.814-.074h-21.19c-.013-.655-.26-1.29-.086-1.96.14-.52.07-1.054-.02-1.576-.03-.235.03-.413.18-.577.33-.362.67-.697 1.12-.904 1.29-.58 2.56-1.17 3.84-1.76 1.24-.58 2.42-1.26 3.49-2.12.31-.25.63-.48.95-.7.64-.45 1.23-.94 1.69-1.57.3-.41.41-.41.84-.18.12.06.23.15.34.22.42.28.57.61.45 1.15-.32 1.41-.58 2.84-.84 4.26-.08.47-.06.46.34.72.28.18.54.39.79.61.78.67 1.53 1.37 2.32 2.03.65.54 1.39.91 2.2 1.14 1.01.28 2.02.53 3.03.8.21.05.41.16.61.24l-.03.13zm.89-15.352c.053.105-.01.286-.06.415-.043.1-.146.18-.267.33-1.55-1.43-3.502-2.06-5.36-2.97.095-.08.144-.14.206-.17.786-.39 1.565-.8 2.364-1.16.56-.26.664-.22.943.3.27.5.66.81 1.217.92.06.01.117.03.174.05.67.2.96.67.766 1.34-.094.32-.137.6.018.91zM47.37 62.62c1.487-1.81 2.086-3.953 2.69-6.12.226.156.277.34.15.524-.194.282-.187.556-.065.856.116.287.31.483.6.576.23.073.286.225.188.42-.103.205-.067.373.058.547.12.157.13.322.07.515-.19.572-.09.757.49.95.11.522.42.856.97.947.09.014.18.06.24.123.16.193.3.402.49.66h-5.86zM61.78 47.5c.014-.164.094-.322.16-.536l1.27.85c-.252.22-.47.397-.67.588-.204.197-.392.41-.596.626-.172-.282-.227-.797-.164-1.527zm15.177 15.503c-4.957.09-9.888-.08-14.82-.17l-.055-.098c.17-.142.33-.292.508-.42.724-.524 1.447-1.05 2.18-1.558 1.15-.796 2.222-1.68 3.246-2.628.655-.61 1.338-1.18 2.144-1.6.36-.19.696-.43 1.072-.66V54.8c.138.057.225.075.293.12.413.283.82.57 1.232.856.217.15.362.37.604.514.19.116.36.254.59.285.07.01.16.054.19.11.2.366.53.488.91.546.09.02.23.15.23.24.04.38.24.5.61.43.06.36.31.42.59.46.35.05.4.13.4.48 0 .12 0 .25-.04.36-.31.84-.12 1.71-.16 2.56 0 .09.03.2.09.25.34.28.21.63.2 1.02zm6.174-5.898c-.02.04-.09.08-.14.076-.04 0-.11-.06-.12-.1-.06-.2-.03-.37.18-.51.25.18.16.37.09.55z"/></svg>